<svg width="100" height="100" viewBox="0 0 100 100" fill="none" xmlns="http://www.w3.org/2000/svg">
<g clip-path="url(#clip0_26_2)">
<rect width="100" height="100" fill="white"/>
<rect width="100" height="100" rx="18" fill="black"/>
<path d="M46.92 86.056C39.56 86.056 33.704 84.072 29.352 80.104C25.064 76.072 22.92 70.664 22.92 63.88H37.32C37.32 66.824 38.184 69.192 39.912 70.984C41.64 72.712 43.976 73.576 46.92 73.576C49.864 73.576 52.2 72.744 53.928 71.08C55.656 69.352 56.52 67.016 56.52 64.072V28.36H40.68V14.92H70.92V64.072C70.92 70.856 68.776 76.232 64.488 80.2C60.2 84.104 54.344 86.056 46.92 86.056Z" fill="white"/>
</g>
<defs>
<clipPath id="clip0_26_2">
<rect width="100" height="100" fill="white"/>
</clipPath>
</defs>
</svg>
