<svg width="125" height="30" viewBox="0 0 125 30" fill="none" xmlns="http://www.w3.org/2000/svg">
<path d="M28.445 13.176C27.2183 13.176 26.2423 12.8453 25.517 12.184C24.8023 11.512 24.445 10.6107 24.445 9.48H26.845C26.845 9.97067 26.989 10.3653 27.277 10.664C27.565 10.952 27.9543 11.096 28.445 11.096C28.9357 11.096 29.325 10.9573 29.613 10.68C29.901 10.392 30.045 10.0027 30.045 9.512V3.56H27.405V1.32H32.445V9.512C32.445 10.6427 32.0877 11.5387 31.373 12.2C30.6583 12.8507 29.6823 13.176 28.445 13.176ZM38.5348 13.16C37.7561 13.16 37.0734 13.016 36.4868 12.728C35.9108 12.4293 35.4628 12.0187 35.1428 11.496C34.8334 10.9627 34.6788 10.344 34.6788 9.64V7.56C34.6788 6.856 34.8334 6.24267 35.1428 5.72C35.4628 5.18667 35.9108 4.776 36.4868 4.488C37.0734 4.18933 37.7561 4.04 38.5348 4.04C39.3134 4.04 39.9854 4.18933 40.5508 4.488C41.1268 4.776 41.5694 5.18667 41.8788 5.72C42.1988 6.24267 42.3588 6.856 42.3588 7.56V9.16H36.9668V9.64C36.9668 10.1947 37.1001 10.616 37.3668 10.904C37.6334 11.1813 38.0334 11.32 38.5668 11.32C38.9401 11.32 39.2388 11.256 39.4628 11.128C39.6974 11 39.8521 10.824 39.9268 10.6H42.2788C42.0868 11.368 41.6494 11.9867 40.9668 12.456C40.2948 12.9253 39.4841 13.16 38.5348 13.16ZM40.0708 7.928V7.528C40.0708 6.984 39.9428 6.568 39.6868 6.28C39.4414 5.992 39.0574 5.848 38.5348 5.848C38.0121 5.848 37.6174 5.99733 37.3508 6.296C37.0948 6.59467 36.9668 7.016 36.9668 7.56V7.8L40.2308 7.768L40.0708 7.928ZM49.5525 13C48.9338 13 48.3898 12.872 47.9205 12.616C47.4512 12.3493 47.0832 11.9813 46.8165 11.512C46.5605 11.0427 46.4325 10.4987 46.4325 9.88V3.48H43.7125V1.32H48.8325V9.88C48.8325 10.168 48.9178 10.4027 49.0885 10.584C49.2698 10.7547 49.5045 10.84 49.7925 10.84H52.3525V13H49.5525ZM59.1463 13C58.5276 13 57.9836 12.872 57.5143 12.616C57.0449 12.3493 56.6769 11.9813 56.4103 11.512C56.1543 11.0427 56.0263 10.4987 56.0263 9.88V3.48H53.3063V1.32H58.4263V9.88C58.4263 10.168 58.5116 10.4027 58.6823 10.584C58.8636 10.7547 59.0983 10.84 59.3863 10.84H61.9462V13H59.1463ZM65.012 15.88L66.212 12.568L62.916 4.2H65.524L66.852 8.04C66.948 8.328 67.044 8.68 67.14 9.096C67.2467 9.50133 67.3267 9.832 67.38 10.088C67.4333 9.832 67.508 9.50133 67.604 9.096C67.7107 8.68 67.812 8.328 67.908 8.04L69.188 4.2H71.684L67.524 15.88H65.012ZM75.2138 13V7.4H72.8778V5.24H75.2138V4.04C75.2138 3.21867 75.4911 2.56267 76.0458 2.072C76.6111 1.57067 77.3471 1.32 78.2538 1.32H80.8298V3.4H78.3338C78.1204 3.4 77.9444 3.46933 77.8058 3.608C77.6778 3.736 77.6138 3.90667 77.6138 4.12V5.24H80.8298V7.4H77.6138V13H75.2138ZM82.8075 13V10.824H85.8475V6.36H83.2075V4.2H88.0875V10.824H90.6475V13H82.8075ZM86.8075 2.808C86.3702 2.808 86.0182 2.696 85.7515 2.472C85.4955 2.248 85.3675 1.944 85.3675 1.56C85.3675 1.176 85.4955 0.871999 85.7515 0.648C86.0182 0.423999 86.3702 0.311999 86.8075 0.311999C87.2448 0.311999 87.5915 0.423999 87.8475 0.648C88.1142 0.871999 88.2475 1.176 88.2475 1.56C88.2475 1.944 88.1142 2.248 87.8475 2.472C87.5915 2.696 87.2448 2.808 86.8075 2.808ZM92.3372 13V4.2H94.6573V5.88H95.3613L94.6573 6.44C94.6573 5.69333 94.8706 5.10667 95.2973 4.68C95.7239 4.25333 96.2999 4.04 97.0253 4.04C97.8786 4.04 98.5613 4.33867 99.0733 4.936C99.5959 5.53333 99.8573 6.328 99.8573 7.32V13H97.4573V7.56C97.4573 7.10133 97.3346 6.74933 97.0893 6.504C96.8546 6.248 96.5186 6.12 96.0813 6.12C95.6546 6.12 95.3239 6.248 95.0893 6.504C94.8546 6.74933 94.7373 7.10133 94.7373 7.56V13H92.3372ZM0.812625 29V17.32H3.51663L4.58863 21C4.70596 21.384 4.79129 21.72 4.84462 22.008C4.90863 22.296 4.94596 22.4987 4.95663 22.616C4.96729 22.4987 4.99929 22.296 5.05263 22.008C5.11663 21.72 5.20196 21.384 5.30863 21L6.36463 17.32H9.06863V29H6.87663V25.8C6.87663 25.2133 6.88729 24.6 6.90863 23.96C6.94063 23.3093 6.97796 22.664 7.02063 22.024C7.06329 21.384 7.11129 20.7867 7.16463 20.232C7.21796 19.6667 7.26596 19.176 7.30863 18.76L5.96463 24.04H3.93263L2.52463 18.76C2.57796 19.1547 2.63129 19.6293 2.68463 20.184C2.73796 20.728 2.78596 21.32 2.82863 21.96C2.88196 22.5893 2.92463 23.2347 2.95663 23.896C2.98863 24.5573 3.00463 25.192 3.00463 25.8V29H0.812625ZM14.5504 29.16C13.7717 29.16 13.089 29.016 12.5024 28.728C11.9264 28.4293 11.4784 28.0187 11.1584 27.496C10.849 26.9627 10.6944 26.344 10.6944 25.64V23.56C10.6944 22.856 10.849 22.2427 11.1584 21.72C11.4784 21.1867 11.9264 20.776 12.5024 20.488C13.089 20.1893 13.7717 20.04 14.5504 20.04C15.329 20.04 16.001 20.1893 16.5664 20.488C17.1424 20.776 17.585 21.1867 17.8944 21.72C18.2144 22.2427 18.3744 22.856 18.3744 23.56V25.16H12.9824V25.64C12.9824 26.1947 13.1157 26.616 13.3824 26.904C13.649 27.1813 14.049 27.32 14.5824 27.32C14.9557 27.32 15.2544 27.256 15.4784 27.128C15.713 27 15.8677 26.824 15.9424 26.6H18.2944C18.1024 27.368 17.665 27.9867 16.9824 28.456C16.3104 28.9253 15.4997 29.16 14.5504 29.16ZM16.0864 23.928V23.528C16.0864 22.984 15.9584 22.568 15.7024 22.28C15.457 21.992 15.073 21.848 14.5504 21.848C14.0277 21.848 13.633 21.9973 13.3664 22.296C13.1104 22.5947 12.9824 23.016 12.9824 23.56V23.8L16.2464 23.768L16.0864 23.928ZM23.2161 29.16C22.3308 29.16 21.6215 28.8507 21.0881 28.232C20.5548 27.6133 20.2881 26.776 20.2881 25.72V23.48C20.2881 22.4347 20.5548 21.6027 21.0881 20.984C21.6215 20.3547 22.3308 20.04 23.2161 20.04C23.9415 20.04 24.5121 20.2533 24.9281 20.68C25.3441 21.096 25.5521 21.6827 25.5521 22.44L24.9921 21.88H25.5521L25.4721 19.72V17.32H27.8721V29H25.5521V27.32H24.9921L25.5521 26.76C25.5521 27.5173 25.3441 28.1093 24.9281 28.536C24.5121 28.952 23.9415 29.16 23.2161 29.16ZM24.0801 27.08C24.5175 27.08 24.8588 26.9573 25.1041 26.712C25.3495 26.456 25.4721 26.0987 25.4721 25.64V23.56C25.4721 23.1013 25.3495 22.7493 25.1041 22.504C24.8588 22.248 24.5175 22.12 24.0801 22.12C23.6321 22.12 23.2855 22.248 23.0401 22.504C22.8055 22.7493 22.6881 23.1013 22.6881 23.56V25.64C22.6881 26.0987 22.8055 26.456 23.0401 26.712C23.2855 26.9573 23.6321 27.08 24.0801 27.08ZM30.0419 29V26.824H33.0819V22.36H30.4419V20.2H35.3219V26.824H37.8819V29H30.0419ZM34.0419 18.808C33.6045 18.808 33.2525 18.696 32.9859 18.472C32.7299 18.248 32.6019 17.944 32.6019 17.56C32.6019 17.176 32.7299 16.872 32.9859 16.648C33.2525 16.424 33.6045 16.312 34.0419 16.312C34.4792 16.312 34.8259 16.424 35.0819 16.648C35.3485 16.872 35.4819 17.176 35.4819 17.56C35.4819 17.944 35.3485 18.248 35.0819 18.472C34.8259 18.696 34.4792 18.808 34.0419 18.808ZM42.1796 29.16C41.2943 29.16 40.5903 28.92 40.0676 28.44C39.5556 27.96 39.2996 27.3093 39.2996 26.488C39.2996 25.6027 39.6036 24.9253 40.2116 24.456C40.8303 23.976 41.7156 23.736 42.8676 23.736H44.6916V23.08C44.6916 22.7387 44.569 22.4667 44.3236 22.264C44.089 22.0613 43.769 21.96 43.3636 21.96C42.9903 21.96 42.681 22.0453 42.4356 22.216C42.1903 22.3867 42.041 22.6213 41.9876 22.92H39.6676C39.7636 22.0347 40.1476 21.336 40.8196 20.824C41.5023 20.3013 42.377 20.04 43.4436 20.04C44.5636 20.04 45.449 20.3173 46.0996 20.872C46.761 21.416 47.0916 22.152 47.0916 23.08V29H44.7716V27.56H44.3876L44.7876 27C44.7876 27.6613 44.5476 28.1893 44.0676 28.584C43.5983 28.968 42.969 29.16 42.1796 29.16ZM43.0756 27.4C43.545 27.4 43.929 27.2773 44.2276 27.032C44.537 26.776 44.6916 26.4453 44.6916 26.04V25.096H42.9156C42.553 25.096 42.2596 25.2027 42.0356 25.416C41.8116 25.6187 41.6996 25.8907 41.6996 26.232C41.6996 26.5947 41.8223 26.8827 42.0676 27.096C42.313 27.2987 42.649 27.4 43.0756 27.4ZM58.7431 29V17.32H62.5031C63.3351 17.32 64.0551 17.464 64.6631 17.752C65.2711 18.04 65.7405 18.4507 66.0711 18.984C66.4125 19.5173 66.5831 20.1467 66.5831 20.872C66.5831 21.6293 66.3965 22.3067 66.0231 22.904C65.6605 23.5013 65.1645 23.9333 64.5351 24.2L66.7431 29H64.1351L62.2471 24.584H61.1271V29H58.7431ZM61.1271 22.504H62.5031C63.0365 22.504 63.4471 22.3707 63.7351 22.104C64.0338 21.8373 64.1831 21.464 64.1831 20.984C64.1831 20.4827 64.0338 20.0933 63.7351 19.816C63.4471 19.5387 63.0365 19.4 62.5031 19.4H61.1271V22.504ZM72.1129 29.16C71.3342 29.16 70.6515 29.016 70.0649 28.728C69.4889 28.4293 69.0409 28.0187 68.7209 27.496C68.4115 26.9627 68.2569 26.344 68.2569 25.64V23.56C68.2569 22.856 68.4115 22.2427 68.7209 21.72C69.0409 21.1867 69.4889 20.776 70.0649 20.488C70.6515 20.1893 71.3342 20.04 72.1129 20.04C72.8915 20.04 73.5635 20.1893 74.1289 20.488C74.7049 20.776 75.1475 21.1867 75.4569 21.72C75.7769 22.2427 75.9369 22.856 75.9369 23.56V25.16H70.5449V25.64C70.5449 26.1947 70.6782 26.616 70.9449 26.904C71.2115 27.1813 71.6115 27.32 72.1449 27.32C72.5182 27.32 72.8169 27.256 73.0409 27.128C73.2755 27 73.4302 26.824 73.5049 26.6H75.8569C75.6649 27.368 75.2275 27.9867 74.5449 28.456C73.8729 28.9253 73.0622 29.16 72.1129 29.16ZM73.6489 23.928V23.528C73.6489 22.984 73.5209 22.568 73.2649 22.28C73.0195 21.992 72.6355 21.848 72.1129 21.848C71.5902 21.848 71.1955 21.9973 70.9289 22.296C70.6729 22.5947 70.5449 23.016 70.5449 23.56V23.8L73.8089 23.768L73.6489 23.928ZM77.9466 29V20.2H80.2666V21.88H80.9706L80.2666 22.44C80.2666 21.6933 80.48 21.1067 80.9066 20.68C81.3333 20.2533 81.9093 20.04 82.6346 20.04C83.488 20.04 84.1706 20.3387 84.6826 20.936C85.2053 21.5333 85.4666 22.328 85.4666 23.32V29H83.0666V23.56C83.0666 23.1013 82.944 22.7493 82.6986 22.504C82.464 22.248 82.128 22.12 81.6906 22.12C81.264 22.12 80.9333 22.248 80.6986 22.504C80.464 22.7493 80.3466 23.1013 80.3466 23.56V29H77.9466ZM90.1484 29.16C89.263 29.16 88.559 28.92 88.0364 28.44C87.5244 27.96 87.2684 27.3093 87.2684 26.488C87.2684 25.6027 87.5724 24.9253 88.1804 24.456C88.799 23.976 89.6844 23.736 90.8364 23.736H92.6604V23.08C92.6604 22.7387 92.5377 22.4667 92.2924 22.264C92.0577 22.0613 91.7377 21.96 91.3324 21.96C90.959 21.96 90.6497 22.0453 90.4044 22.216C90.159 22.3867 90.0097 22.6213 89.9564 22.92H87.6364C87.7324 22.0347 88.1164 21.336 88.7884 20.824C89.471 20.3013 90.3457 20.04 91.4124 20.04C92.5324 20.04 93.4177 20.3173 94.0684 20.872C94.7297 21.416 95.0604 22.152 95.0604 23.08V29H92.7404V27.56H92.3564L92.7564 27C92.7564 27.6613 92.5164 28.1893 92.0364 28.584C91.567 28.968 90.9377 29.16 90.1484 29.16ZM91.0444 27.4C91.5137 27.4 91.8977 27.2773 92.1964 27.032C92.5057 26.776 92.6604 26.4453 92.6604 26.04V25.096H90.8844C90.5217 25.096 90.2284 25.2027 90.0044 25.416C89.7804 25.6187 89.6684 25.8907 89.6684 26.232C89.6684 26.5947 89.791 26.8827 90.0364 27.096C90.2817 27.2987 90.6177 27.4 91.0444 27.4ZM96.7501 29V20.2H98.6381V21.48H99.0221L98.7181 21.704C98.7181 21.2027 98.8621 20.8027 99.1501 20.504C99.4381 20.1947 99.7955 20.04 100.222 20.04C100.681 20.04 101.038 20.2373 101.294 20.632C101.55 21.0267 101.678 21.5493 101.678 22.2L101.39 21.48H101.838L101.694 21.704C101.694 21.2027 101.833 20.8027 102.11 20.504C102.387 20.1947 102.761 20.04 103.23 20.04C103.763 20.04 104.195 20.2427 104.526 20.648C104.857 21.0427 105.022 21.5867 105.022 22.28V29H102.958V22.44C102.958 22.1947 102.905 22.008 102.798 21.88C102.691 21.7413 102.537 21.672 102.334 21.672C102.131 21.672 101.977 21.7413 101.87 21.88C101.763 22.008 101.71 22.1947 101.71 22.44V29H100.062V22.44C100.062 22.1947 100.009 22.008 99.9021 21.88C99.7955 21.7413 99.6408 21.672 99.4381 21.672C99.2355 21.672 99.0808 21.7413 98.9741 21.88C98.8675 22.008 98.8141 22.1947 98.8141 22.44V29H96.7501ZM110.488 29.16C109.709 29.16 109.027 29.016 108.44 28.728C107.864 28.4293 107.416 28.0187 107.096 27.496C106.787 26.9627 106.632 26.344 106.632 25.64V23.56C106.632 22.856 106.787 22.2427 107.096 21.72C107.416 21.1867 107.864 20.776 108.44 20.488C109.027 20.1893 109.709 20.04 110.488 20.04C111.267 20.04 111.939 20.1893 112.504 20.488C113.08 20.776 113.523 21.1867 113.832 21.72C114.152 22.2427 114.312 22.856 114.312 23.56V25.16H108.92V25.64C108.92 26.1947 109.053 26.616 109.32 26.904C109.587 27.1813 109.987 27.32 110.52 27.32C110.893 27.32 111.192 27.256 111.416 27.128C111.651 27 111.805 26.824 111.88 26.6H114.232C114.04 27.368 113.603 27.9867 112.92 28.456C112.248 28.9253 111.437 29.16 110.488 29.16ZM112.024 23.928V23.528C112.024 22.984 111.896 22.568 111.64 22.28C111.395 21.992 111.011 21.848 110.488 21.848C109.965 21.848 109.571 21.9973 109.304 22.296C109.048 22.5947 108.92 23.016 108.92 23.56V23.8L112.184 23.768L112.024 23.928ZM116.578 29V20.2H118.818V21.88H119.426L118.738 22.904C118.738 21.9547 118.956 21.24 119.394 20.76C119.831 20.28 120.471 20.04 121.314 20.04C122.284 20.04 123.036 20.3333 123.57 20.92C124.114 21.5067 124.386 22.3333 124.386 23.4V24.12H121.826V23.56C121.826 23.08 121.692 22.7067 121.426 22.44C121.17 22.1733 120.823 22.04 120.386 22.04C119.927 22.04 119.575 22.1733 119.33 22.44C119.095 22.7067 118.978 23.08 118.978 23.56V29H116.578Z" fill="black"/>
</svg>
