<svg width="80" height="38" viewBox="0 0 80 38" fill="none" xmlns="http://www.w3.org/2000/svg">
<path d="M17.088 6.148C16.104 5.548 15.144 5.248 14.208 5.248C12.696 5.248 11.04 5.488 9.24 5.968L7.296 6.436C6.72 6.58 6.276 6.652 5.964 6.652C5.244 6.652 4.884 6.388 4.884 5.86C4.884 5.548 5.148 5.164 5.676 4.708C6.18 4.228 6.864 3.772 7.728 3.34C9.864 2.284 12.18 1.756 14.676 1.756C18.252 1.756 20.544 2.368 21.552 3.592C21.84 3.928 21.984 4.396 21.984 4.996C21.936 7.324 20.856 13.516 18.744 23.572C21.576 22.42 23.304 21.472 23.928 20.728C24.576 19.984 25.08 19.612 25.44 19.612C25.8 19.612 25.98 19.984 25.98 20.728C25.98 21.472 25.752 22.12 25.296 22.672C24.864 23.224 24.168 23.848 23.208 24.544C22.272 25.24 20.544 26.128 18.024 27.208C17.832 28.168 17.472 29.236 16.944 30.412C15.144 35.38 12.204 37.864 8.124 37.864C6.132 37.864 4.44 37.432 3.048 36.568C1.656 35.704 0.96 34.372 0.96 32.572C0.96 31.924 1.296 31.312 1.968 30.736C2.616 30.16 3.576 29.548 4.848 28.9C6.096 28.276 8.544 27.316 12.192 26.02C12.336 25.18 12.456 24.4 12.552 23.68C12.648 22.936 12.756 22.3 12.876 21.772C13.38 18.34 14.376 14.296 15.864 9.64C16.296 8.32 16.704 7.156 17.088 6.148ZM5.712 34.48C6.432 34.864 7.116 35.056 7.764 35.056C8.412 35.08 8.904 34.936 9.24 34.624C9.576 34.336 9.936 33.856 10.32 33.184C10.728 32.512 11.124 31.336 11.508 29.656C10.26 30.088 9.192 30.448 8.304 30.736C7.44 31.024 6.732 31.288 6.18 31.528C5.652 31.768 5.268 31.996 5.028 32.212C4.764 32.428 4.632 32.692 4.632 33.004C4.632 33.604 4.992 34.096 5.712 34.48ZM57.977 19.504C58.385 19.504 58.589 20.056 58.589 21.16C58.589 21.76 58.337 22.492 57.833 23.356C57.329 24.196 56.669 24.976 55.853 25.696C55.061 26.392 54.173 26.968 53.189 27.424C52.205 27.88 51.161 28.108 50.057 28.108C48.977 28.108 48.125 27.76 47.501 27.064C46.901 26.344 46.601 25.552 46.601 24.688C46.601 23.8 46.745 22.804 47.033 21.7C47.321 20.596 47.633 19.444 47.969 18.244C48.881 15.052 49.349 12.808 49.373 11.512C49.373 10.96 49.301 10.54 49.157 10.252C49.013 9.94 48.737 9.784 48.329 9.784C47.609 9.784 46.841 10.216 46.025 11.08C45.209 11.944 44.441 13.048 43.721 14.392C42.065 17.464 41.189 20.464 41.093 23.392C41.141 23.728 41.189 24.064 41.237 24.4C41.285 24.736 41.309 25.096 41.309 25.48C41.309 26.248 40.925 26.956 40.157 27.604C39.413 28.228 38.573 28.54 37.637 28.54C37.085 28.54 36.677 28.276 36.413 27.748C36.149 27.196 36.017 26.524 36.017 25.732C36.017 24.94 36.197 23.86 36.557 22.492C36.917 21.124 37.313 19.672 37.745 18.136C38.897 14.08 39.485 11.056 39.509 9.064C39.509 8.056 39.377 7.264 39.113 6.688C38.873 6.112 38.393 5.824 37.673 5.824C36.377 5.824 35.093 6.748 33.821 8.596C32.549 10.444 31.409 13.312 30.401 17.2C30.137 18.208 29.933 19.084 29.789 19.828L29.753 20.512C30.209 22.72 30.437 24.16 30.437 24.832C30.437 26.224 29.945 27.16 28.961 27.64C28.505 27.856 28.061 28.06 27.629 28.252C27.221 28.444 26.777 28.54 26.297 28.54C25.097 28.54 24.497 27.4 24.497 25.12C24.497 22.816 25.133 18.328 26.405 11.656C26.861 9.256 27.089 7.912 27.089 7.624C27.089 5.68 26.597 4.708 25.613 4.708C25.277 4.708 24.965 4.804 24.677 4.996C24.413 5.188 24.137 5.392 23.849 5.608C23.585 5.824 23.309 6.028 23.021 6.22C22.733 6.412 22.397 6.508 22.013 6.508C21.653 6.508 21.473 6.184 21.473 5.536C21.473 4.216 22.085 3.136 23.309 2.296C24.485 1.432 25.913 0.999998 27.593 0.999998C29.753 0.999998 31.025 2.008 31.409 4.024C31.505 4.624 31.577 5.26 31.625 5.932C33.401 2.596 35.645 0.927999 38.357 0.927999C41.309 0.927999 43.001 2.344 43.433 5.176C43.577 5.992 43.637 6.868 43.613 7.804V8.092C45.173 5.932 47.021 4.852 49.157 4.852C52.181 4.852 53.693 6.676 53.693 10.324C53.693 11.908 53.441 13.768 52.937 15.904C52.457 18.016 52.097 19.54 51.857 20.476C51.641 21.388 51.533 22.096 51.533 22.6C51.533 23.512 51.845 23.968 52.469 23.968C53.117 23.968 54.641 22.72 57.041 20.224C57.473 19.744 57.785 19.504 57.977 19.504ZM79.2437 19.504C79.6517 19.504 79.8557 20.056 79.8557 21.16C79.8557 21.76 79.6037 22.492 79.0997 23.356C78.5957 24.196 77.9357 24.976 77.1197 25.696C76.3277 26.392 75.4397 26.968 74.4557 27.424C73.4717 27.88 72.5357 28.108 71.6477 28.108C70.7597 28.108 70.0637 27.94 69.5597 27.604C69.0557 27.268 68.6597 26.812 68.3717 26.236C67.9637 25.42 67.6277 23.872 67.3637 21.592C67.0997 19.288 66.8357 17.68 66.5717 16.768C65.9477 16.648 65.3957 16.408 64.9157 16.048C64.4597 15.664 64.2317 15.208 64.2317 14.68C64.2317 14.128 64.4717 13.732 64.9517 13.492C65.4557 13.252 66.0197 13.132 66.6437 13.132C67.2917 13.132 67.8677 13.288 68.3717 13.6C69.0437 13.048 69.5837 12.4 69.9917 11.656C70.4237 10.888 70.6397 9.868 70.6397 8.596C70.6397 7.3 70.2077 6.268 69.3437 5.5C68.4797 4.732 67.2077 4.348 65.5277 4.348C63.8717 4.348 62.5997 4.48 61.7117 4.744C60.8237 5.008 60.0557 5.296 59.4077 5.608C58.7837 5.92 58.2197 6.208 57.7157 6.472C57.2357 6.736 56.7797 6.868 56.3477 6.868C55.9157 6.868 55.6997 6.736 55.6997 6.472C55.6997 6.184 55.9277 5.728 56.3837 5.104C56.8397 4.48 57.5117 3.856 58.3997 3.232C60.6317 1.672 63.1517 0.903999 65.9597 0.927999C68.7677 0.927999 71.0837 1.456 72.9077 2.512C75.0437 3.76 76.1117 5.632 76.1117 8.128C76.1357 10.192 75.5957 11.908 74.4917 13.276C73.3877 14.644 72.0197 15.628 70.3877 16.228C70.7477 17.02 71.0357 17.872 71.2517 18.784C71.4917 19.696 71.7197 20.536 71.9357 21.304C72.1517 22.072 72.3917 22.708 72.6557 23.212C72.9437 23.716 73.2797 23.968 73.6637 23.968C74.0717 23.968 74.5517 23.74 75.1037 23.284C75.6797 22.804 76.2437 22.288 76.7957 21.736C77.3477 21.184 77.8397 20.68 78.2717 20.224C78.7277 19.744 79.0517 19.504 79.2437 19.504ZM63.5837 6.544C63.8957 6.544 64.0517 6.952 64.0517 7.768C64.0517 8.584 64.0037 9.352 63.9077 10.072C63.6917 11.464 63.4157 12.76 63.0797 13.96C62.2157 17.224 61.7837 19.132 61.7837 19.684V24.976C61.7837 26.272 61.2917 27.16 60.3077 27.64C59.8517 27.856 59.4077 28.06 58.9757 28.252C58.5677 28.444 58.0997 28.54 57.5717 28.54C56.5637 28.54 56.0597 27.388 56.0597 25.084C56.0597 22.756 56.5997 19.828 57.6797 16.3C58.7597 12.772 59.8877 10.084 61.0637 8.236C61.3037 7.876 61.6517 7.504 62.1077 7.12C62.5637 6.736 63.0557 6.544 63.5837 6.544Z" fill="black"/>
</svg>
