<svg width="161" height="32" viewBox="0 0 161 32" fill="none" xmlns="http://www.w3.org/2000/svg">
<path d="M40.32 14.176C39.0933 14.176 38.1173 13.8453 37.392 13.184C36.6773 12.512 36.32 11.6107 36.32 10.48H38.72C38.72 10.9707 38.864 11.3653 39.152 11.664C39.44 11.952 39.8293 12.096 40.32 12.096C40.8107 12.096 41.2 11.9573 41.488 11.68C41.776 11.392 41.92 11.0027 41.92 10.512V4.56H39.28V2.32H44.32V10.512C44.32 11.6427 43.9627 12.5387 43.248 13.2C42.5333 13.8507 41.5573 14.176 40.32 14.176ZM50.4098 14.16C49.6311 14.16 48.9484 14.016 48.3618 13.728C47.7858 13.4293 47.3378 13.0187 47.0178 12.496C46.7084 11.9627 46.5538 11.344 46.5538 10.64V8.56C46.5538 7.856 46.7084 7.24267 47.0178 6.72C47.3378 6.18667 47.7858 5.776 48.3618 5.488C48.9484 5.18933 49.6311 5.04 50.4098 5.04C51.1884 5.04 51.8604 5.18933 52.4258 5.488C53.0018 5.776 53.4444 6.18667 53.7538 6.72C54.0738 7.24267 54.2338 7.856 54.2338 8.56V10.16H48.8418V10.64C48.8418 11.1947 48.9751 11.616 49.2418 11.904C49.5084 12.1813 49.9084 12.32 50.4418 12.32C50.8151 12.32 51.1138 12.256 51.3378 12.128C51.5724 12 51.7271 11.824 51.8018 11.6H54.1538C53.9618 12.368 53.5244 12.9867 52.8418 13.456C52.1698 13.9253 51.3591 14.16 50.4098 14.16ZM51.9458 8.928V8.528C51.9458 7.984 51.8178 7.568 51.5618 7.28C51.3164 6.992 50.9324 6.848 50.4098 6.848C49.8871 6.848 49.4924 6.99733 49.2258 7.296C48.9698 7.59467 48.8418 8.016 48.8418 8.56V8.8L52.1058 8.768L51.9458 8.928ZM61.4275 14C60.8088 14 60.2648 13.872 59.7955 13.616C59.3262 13.3493 58.9582 12.9813 58.6915 12.512C58.4355 12.0427 58.3075 11.4987 58.3075 10.88V4.48H55.5875V2.32H60.7075V10.88C60.7075 11.168 60.7928 11.4027 60.9635 11.584C61.1448 11.7547 61.3795 11.84 61.6675 11.84H64.2275V14H61.4275ZM71.0213 14C70.4026 14 69.8586 13.872 69.3893 13.616C68.9199 13.3493 68.5519 12.9813 68.2853 12.512C68.0293 12.0427 67.9013 11.4987 67.9013 10.88V4.48H65.1813V2.32H70.3013V10.88C70.3013 11.168 70.3866 11.4027 70.5573 11.584C70.7386 11.7547 70.9733 11.84 71.2613 11.84H73.8212V14H71.0213ZM76.887 16.88L78.087 13.568L74.791 5.2H77.399L78.727 9.04C78.823 9.328 78.919 9.68 79.015 10.096C79.1217 10.5013 79.2017 10.832 79.255 11.088C79.3083 10.832 79.383 10.5013 79.479 10.096C79.5857 9.68 79.687 9.328 79.783 9.04L81.063 5.2H83.559L79.399 16.88H76.887ZM87.0888 14V8.4H84.7528V6.24H87.0888V5.04C87.0888 4.21867 87.3661 3.56267 87.9208 3.072C88.4861 2.57067 89.2221 2.32 90.1288 2.32H92.7048V4.4H90.2088C89.9954 4.4 89.8194 4.46933 89.6808 4.608C89.5528 4.736 89.4888 4.90667 89.4888 5.12V6.24H92.7048V8.4H89.4888V14H87.0888ZM94.6825 14V11.824H97.7225V7.36H95.0825V5.2H99.9625V11.824H102.523V14H94.6825ZM98.6825 3.808C98.2452 3.808 97.8932 3.696 97.6265 3.472C97.3705 3.248 97.2425 2.944 97.2425 2.56C97.2425 2.176 97.3705 1.872 97.6265 1.648C97.8932 1.424 98.2452 1.312 98.6825 1.312C99.1198 1.312 99.4665 1.424 99.7225 1.648C99.9892 1.872 100.123 2.176 100.123 2.56C100.123 2.944 99.9892 3.248 99.7225 3.472C99.4665 3.696 99.1198 3.808 98.6825 3.808ZM104.212 14V5.2H106.532V6.88H107.236L106.532 7.44C106.532 6.69333 106.746 6.10667 107.172 5.68C107.599 5.25333 108.175 5.04 108.9 5.04C109.754 5.04 110.436 5.33867 110.948 5.936C111.471 6.53333 111.732 7.328 111.732 8.32V14H109.332V8.56C109.332 8.10133 109.21 7.74933 108.964 7.504C108.73 7.248 108.394 7.12 107.956 7.12C107.53 7.12 107.199 7.248 106.964 7.504C106.73 7.74933 106.612 8.10133 106.612 8.56V14H104.212ZM36.672 30V18.32H39.376L40.448 22C40.5653 22.384 40.6507 22.72 40.704 23.008C40.768 23.296 40.8053 23.4987 40.816 23.616C40.8267 23.4987 40.8587 23.296 40.912 23.008C40.976 22.72 41.0613 22.384 41.168 22L42.224 18.32H44.928V30H42.736V26.8C42.736 26.2133 42.7467 25.6 42.768 24.96C42.8 24.3093 42.8373 23.664 42.88 23.024C42.9227 22.384 42.9707 21.7867 43.024 21.232C43.0773 20.6667 43.1253 20.176 43.168 19.76L41.824 25.04H39.792L38.384 19.76C38.4373 20.1547 38.4907 20.6293 38.544 21.184C38.5973 21.728 38.6453 22.32 38.688 22.96C38.7413 23.5893 38.784 24.2347 38.816 24.896C38.848 25.5573 38.864 26.192 38.864 26.8V30H36.672ZM50.4098 30.16C49.6311 30.16 48.9484 30.016 48.3618 29.728C47.7858 29.4293 47.3378 29.0187 47.0178 28.496C46.7084 27.9627 46.5538 27.344 46.5538 26.64V24.56C46.5538 23.856 46.7084 23.2427 47.0178 22.72C47.3378 22.1867 47.7858 21.776 48.3618 21.488C48.9484 21.1893 49.6311 21.04 50.4098 21.04C51.1884 21.04 51.8604 21.1893 52.4258 21.488C53.0018 21.776 53.4444 22.1867 53.7538 22.72C54.0738 23.2427 54.2338 23.856 54.2338 24.56V26.16H48.8418V26.64C48.8418 27.1947 48.9751 27.616 49.2418 27.904C49.5084 28.1813 49.9084 28.32 50.4418 28.32C50.8151 28.32 51.1138 28.256 51.3378 28.128C51.5724 28 51.7271 27.824 51.8018 27.6H54.1538C53.9618 28.368 53.5244 28.9867 52.8418 29.456C52.1698 29.9253 51.3591 30.16 50.4098 30.16ZM51.9458 24.928V24.528C51.9458 23.984 51.8178 23.568 51.5618 23.28C51.3164 22.992 50.9324 22.848 50.4098 22.848C49.8871 22.848 49.4924 22.9973 49.2258 23.296C48.9698 23.5947 48.8418 24.016 48.8418 24.56V24.8L52.1058 24.768L51.9458 24.928ZM59.0755 30.16C58.1902 30.16 57.4808 29.8507 56.9475 29.232C56.4142 28.6133 56.1475 27.776 56.1475 26.72V24.48C56.1475 23.4347 56.4142 22.6027 56.9475 21.984C57.4808 21.3547 58.1902 21.04 59.0755 21.04C59.8008 21.04 60.3715 21.2533 60.7875 21.68C61.2035 22.096 61.4115 22.6827 61.4115 23.44L60.8515 22.88H61.4115L61.3315 20.72V18.32H63.7315V30H61.4115V28.32H60.8515L61.4115 27.76C61.4115 28.5173 61.2035 29.1093 60.7875 29.536C60.3715 29.952 59.8008 30.16 59.0755 30.16ZM59.9395 28.08C60.3768 28.08 60.7182 27.9573 60.9635 27.712C61.2088 27.456 61.3315 27.0987 61.3315 26.64V24.56C61.3315 24.1013 61.2088 23.7493 60.9635 23.504C60.7182 23.248 60.3768 23.12 59.9395 23.12C59.4915 23.12 59.1448 23.248 58.8995 23.504C58.6648 23.7493 58.5475 24.1013 58.5475 24.56V26.64C58.5475 27.0987 58.6648 27.456 58.8995 27.712C59.1448 27.9573 59.4915 28.08 59.9395 28.08ZM65.9013 30V27.824H68.9413V23.36H66.3013V21.2H71.1813V27.824H73.7413V30H65.9013ZM69.9013 19.808C69.4639 19.808 69.1119 19.696 68.8453 19.472C68.5893 19.248 68.4613 18.944 68.4613 18.56C68.4613 18.176 68.5893 17.872 68.8453 17.648C69.1119 17.424 69.4639 17.312 69.9013 17.312C70.3386 17.312 70.6853 17.424 70.9413 17.648C71.2079 17.872 71.3413 18.176 71.3413 18.56C71.3413 18.944 71.2079 19.248 70.9413 19.472C70.6853 19.696 70.3386 19.808 69.9013 19.808ZM78.039 30.16C77.1537 30.16 76.4497 29.92 75.927 29.44C75.415 28.96 75.159 28.3093 75.159 27.488C75.159 26.6027 75.463 25.9253 76.071 25.456C76.6897 24.976 77.575 24.736 78.727 24.736H80.551V24.08C80.551 23.7387 80.4283 23.4667 80.183 23.264C79.9483 23.0613 79.6283 22.96 79.223 22.96C78.8497 22.96 78.5403 23.0453 78.295 23.216C78.0497 23.3867 77.9003 23.6213 77.847 23.92H75.527C75.623 23.0347 76.007 22.336 76.679 21.824C77.3617 21.3013 78.2363 21.04 79.303 21.04C80.423 21.04 81.3083 21.3173 81.959 21.872C82.6203 22.416 82.951 23.152 82.951 24.08V30H80.631V28.56H80.247L80.647 28C80.647 28.6613 80.407 29.1893 79.927 29.584C79.4577 29.968 78.8283 30.16 78.039 30.16ZM78.935 28.4C79.4043 28.4 79.7883 28.2773 80.087 28.032C80.3963 27.776 80.551 27.4453 80.551 27.04V26.096H78.775C78.4123 26.096 78.119 26.2027 77.895 26.416C77.671 26.6187 77.559 26.8907 77.559 27.232C77.559 27.5947 77.6817 27.8827 77.927 28.096C78.1723 28.2987 78.5083 28.4 78.935 28.4ZM94.6025 30V18.32H98.3625C99.1945 18.32 99.9145 18.464 100.523 18.752C101.131 19.04 101.6 19.4507 101.931 19.984C102.272 20.5173 102.443 21.1467 102.443 21.872C102.443 22.6293 102.256 23.3067 101.883 23.904C101.52 24.5013 101.024 24.9333 100.395 25.2L102.602 30H99.9945L98.1065 25.584H96.9865V30H94.6025ZM96.9865 23.504H98.3625C98.8958 23.504 99.3065 23.3707 99.5945 23.104C99.8932 22.8373 100.043 22.464 100.043 21.984C100.043 21.4827 99.8932 21.0933 99.5945 20.816C99.3065 20.5387 98.8958 20.4 98.3625 20.4H96.9865V23.504ZM107.972 30.16C107.194 30.16 106.511 30.016 105.924 29.728C105.348 29.4293 104.9 29.0187 104.58 28.496C104.271 27.9627 104.116 27.344 104.116 26.64V24.56C104.116 23.856 104.271 23.2427 104.58 22.72C104.9 22.1867 105.348 21.776 105.924 21.488C106.511 21.1893 107.194 21.04 107.972 21.04C108.751 21.04 109.423 21.1893 109.988 21.488C110.564 21.776 111.007 22.1867 111.316 22.72C111.636 23.2427 111.796 23.856 111.796 24.56V26.16H106.404V26.64C106.404 27.1947 106.538 27.616 106.804 27.904C107.071 28.1813 107.471 28.32 108.004 28.32C108.378 28.32 108.676 28.256 108.9 28.128C109.135 28 109.29 27.824 109.364 27.6H111.716C111.524 28.368 111.087 28.9867 110.404 29.456C109.732 29.9253 108.922 30.16 107.972 30.16ZM109.508 24.928V24.528C109.508 23.984 109.38 23.568 109.124 23.28C108.879 22.992 108.495 22.848 107.972 22.848C107.45 22.848 107.055 22.9973 106.788 23.296C106.532 23.5947 106.404 24.016 106.404 24.56V24.8L109.668 24.768L109.508 24.928ZM113.806 30V21.2H116.126V22.88H116.83L116.126 23.44C116.126 22.6933 116.339 22.1067 116.766 21.68C117.193 21.2533 117.769 21.04 118.494 21.04C119.347 21.04 120.03 21.3387 120.542 21.936C121.065 22.5333 121.326 23.328 121.326 24.32V30H118.926V24.56C118.926 24.1013 118.803 23.7493 118.558 23.504C118.323 23.248 117.987 23.12 117.55 23.12C117.123 23.12 116.793 23.248 116.558 23.504C116.323 23.7493 116.206 24.1013 116.206 24.56V30H113.806ZM126.008 30.16C125.122 30.16 124.418 29.92 123.896 29.44C123.384 28.96 123.128 28.3093 123.128 27.488C123.128 26.6027 123.432 25.9253 124.04 25.456C124.658 24.976 125.544 24.736 126.696 24.736H128.52V24.08C128.52 23.7387 128.397 23.4667 128.152 23.264C127.917 23.0613 127.597 22.96 127.192 22.96C126.818 22.96 126.509 23.0453 126.264 23.216C126.018 23.3867 125.869 23.6213 125.816 23.92H123.496C123.592 23.0347 123.976 22.336 124.648 21.824C125.33 21.3013 126.205 21.04 127.272 21.04C128.392 21.04 129.277 21.3173 129.928 21.872C130.589 22.416 130.92 23.152 130.92 24.08V30H128.6V28.56H128.216L128.616 28C128.616 28.6613 128.376 29.1893 127.896 29.584C127.426 29.968 126.797 30.16 126.008 30.16ZM126.904 28.4C127.373 28.4 127.757 28.2773 128.056 28.032C128.365 27.776 128.52 27.4453 128.52 27.04V26.096H126.744C126.381 26.096 126.088 26.2027 125.864 26.416C125.64 26.6187 125.528 26.8907 125.528 27.232C125.528 27.5947 125.65 27.8827 125.896 28.096C126.141 28.2987 126.477 28.4 126.904 28.4ZM132.61 30V21.2H134.498V22.48H134.882L134.578 22.704C134.578 22.2027 134.722 21.8027 135.01 21.504C135.298 21.1947 135.655 21.04 136.082 21.04C136.54 21.04 136.898 21.2373 137.154 21.632C137.41 22.0267 137.538 22.5493 137.538 23.2L137.25 22.48H137.698L137.554 22.704C137.554 22.2027 137.692 21.8027 137.97 21.504C138.247 21.1947 138.62 21.04 139.09 21.04C139.623 21.04 140.055 21.2427 140.385 21.648C140.716 22.0427 140.882 22.5867 140.882 23.28V30H138.818V23.44C138.818 23.1947 138.764 23.008 138.658 22.88C138.551 22.7413 138.396 22.672 138.194 22.672C137.991 22.672 137.836 22.7413 137.73 22.88C137.623 23.008 137.57 23.1947 137.57 23.44V30H135.922V23.44C135.922 23.1947 135.868 23.008 135.762 22.88C135.655 22.7413 135.5 22.672 135.298 22.672C135.095 22.672 134.94 22.7413 134.834 22.88C134.727 23.008 134.674 23.1947 134.674 23.44V30H132.61ZM146.347 30.16C145.569 30.16 144.886 30.016 144.299 29.728C143.723 29.4293 143.275 29.0187 142.955 28.496C142.646 27.9627 142.491 27.344 142.491 26.64V24.56C142.491 23.856 142.646 23.2427 142.955 22.72C143.275 22.1867 143.723 21.776 144.299 21.488C144.886 21.1893 145.569 21.04 146.347 21.04C147.126 21.04 147.798 21.1893 148.363 21.488C148.939 21.776 149.382 22.1867 149.691 22.72C150.011 23.2427 150.171 23.856 150.171 24.56V26.16H144.779V26.64C144.779 27.1947 144.913 27.616 145.179 27.904C145.446 28.1813 145.846 28.32 146.379 28.32C146.753 28.32 147.051 28.256 147.275 28.128C147.51 28 147.665 27.824 147.739 27.6H150.091C149.899 28.368 149.462 28.9867 148.779 29.456C148.107 29.9253 147.297 30.16 146.347 30.16ZM147.883 24.928V24.528C147.883 23.984 147.755 23.568 147.499 23.28C147.254 22.992 146.87 22.848 146.347 22.848C145.825 22.848 145.43 22.9973 145.163 23.296C144.907 23.5947 144.779 24.016 144.779 24.56V24.8L148.043 24.768L147.883 24.928ZM152.437 30V21.2H154.677V22.88H155.285L154.597 23.904C154.597 22.9547 154.816 22.24 155.253 21.76C155.69 21.28 156.33 21.04 157.173 21.04C158.144 21.04 158.896 21.3333 159.429 21.92C159.973 22.5067 160.245 23.3333 160.245 24.4V25.12H157.685V24.56C157.685 24.08 157.552 23.7067 157.285 23.44C157.029 23.1733 156.682 23.04 156.245 23.04C155.786 23.04 155.434 23.1733 155.189 23.44C154.954 23.7067 154.837 24.08 154.837 24.56V30H152.437Z" fill="black"/>
<rect width="32" height="32" rx="8" fill="black"/>
<path d="M14.48 25.264C12.64 25.264 11.176 24.768 10.088 23.776C9.016 22.768 8.48 21.416 8.48 19.72H12.08C12.08 20.456 12.296 21.048 12.728 21.496C13.16 21.928 13.744 22.144 14.48 22.144C15.216 22.144 15.8 21.936 16.232 21.52C16.664 21.088 16.88 20.504 16.88 19.768V10.84H12.92V7.48H20.48V19.768C20.48 21.464 19.944 22.808 18.872 23.8C17.8 24.776 16.336 25.264 14.48 25.264Z" fill="white"/>
</svg>
