<svg width="43" height="64" viewBox="0 0 43 64" fill="none" xmlns="http://www.w3.org/2000/svg">
<rect width="43" height="64" fill="#D4D4D4"/>
<path d="M32.5 21H9.5C9.10218 21 8.72066 21.1581 8.43936 21.4394C8.15806 21.7207 8.00002 22.1022 8 22.5V41.5C8.00002 41.8978 8.15806 42.2793 8.43936 42.5606C8.72066 42.8419 9.10218 43 9.5 43H32.5C32.8978 43 33.2793 42.8419 33.5606 42.5606C33.8419 42.2793 34 41.8978 34 41.5V22.5C34 22.1022 33.8419 21.7207 33.5606 21.4394C33.2793 21.1581 32.8978 21 32.5 21ZM31 34.5L26.2057 29.2699C26.115 29.1696 26.0048 29.0889 25.8818 29.0327C25.7588 28.9765 25.6256 28.946 25.4904 28.9431C25.3552 28.9401 25.2208 28.9648 25.0954 29.0156C24.9701 29.0664 24.8565 29.1423 24.7615 29.2385L19.4141 34.5859L24.8281 40H22L17.2071 35.207C17.0195 35.0195 16.7652 34.9142 16.5 34.9142C16.2348 34.9142 15.9805 35.0195 15.7929 35.207L11 40V24H31V34.5ZM13.1 28.5C13.1 28.0253 13.2408 27.5613 13.5045 27.1666C13.7682 26.772 14.143 26.4643 14.5816 26.2827C15.0201 26.101 15.5027 26.0535 15.9682 26.1461C16.4338 26.2387 16.8614 26.4673 17.1971 26.8029C17.5327 27.1386 17.7613 27.5662 17.8539 28.0318C17.9465 28.4973 17.899 28.9799 17.7173 29.4184C17.5357 29.857 17.228 30.2318 16.8334 30.4955C16.4387 30.7592 15.9747 30.9 15.5 30.9C14.8635 30.9 14.253 30.6471 13.803 30.197C13.3529 29.747 13.1 29.1365 13.1 28.5Z" fill="#B5B5B5"/>
</svg>
